<svg xmlns="http://www.w3.org/2000/svg" width="24.624" height="24" viewBox="0 0 24.624 24">
  <path id="FontAwsome_arrow-right_" data-name="FontAwsome (arrow-right)" d="M10.469,39.258l1.22-1.22a1.314,1.314,0,0,1,1.863,0L24.236,48.716a1.314,1.314,0,0,1,0,1.863L13.553,61.263a1.314,1.314,0,0,1-1.863,0l-1.22-1.22a1.32,1.32,0,0,1,.022-1.885l6.622-6.309H1.319A1.316,1.316,0,0,1,0,50.529V48.771a1.316,1.316,0,0,1,1.319-1.319H17.114l-6.622-6.309A1.311,1.311,0,0,1,10.469,39.258Z" transform="translate(0 -37.65)" fill="#fff"/>
</svg>
