<svg xmlns="http://www.w3.org/2000/svg" width="24" height="24" viewBox="0 0 24 24">
  <path id="FontAwsome_arrow-alt-circle-right_" data-name="FontAwsome (arrow-alt-circle-right)" d="M32,20A12,12,0,1,0,20,32,12,12,0,0,0,32,20ZM10.323,20A9.677,9.677,0,1,1,20,29.677,9.675,9.675,0,0,1,10.323,20Zm3.484.968V19.032a.582.582,0,0,1,.581-.581H20V15.21a.582.582,0,0,1,.992-.411l4.79,4.79a.581.581,0,0,1,0,.823l-4.79,4.79A.581.581,0,0,1,20,24.79V21.548H14.387A.582.582,0,0,1,13.806,20.968Z" transform="translate(-8 -8)" fill="#fff"/>
</svg>
