<svg xmlns="http://www.w3.org/2000/svg" width="27.421" height="24" viewBox="0 0 27.421 24">
  <path id="FontAwsome_heart_" data-name="FontAwsome (heart)" d="M24.55,33.709a8.067,8.067,0,0,0-10.84.8,8.062,8.062,0,0,0-10.84-.8A8.1,8.1,0,0,0,2.3,45.556L11.7,55.127a2.813,2.813,0,0,0,4.027.005l9.394-9.571A8.109,8.109,0,0,0,24.55,33.709ZM23.286,43.751l-9.394,9.571a.22.22,0,0,1-.364,0L4.134,43.751a5.523,5.523,0,0,1,.391-8.071,5.43,5.43,0,0,1,7.311.562l1.874,1.912,1.874-1.912a5.426,5.426,0,0,1,7.311-.568A5.547,5.547,0,0,1,23.286,43.751Z" transform="translate(0 -31.978)" fill="#ff6767"/>
</svg>
