<svg xmlns="http://www.w3.org/2000/svg" width="31.493" height="24" viewBox="0 0 31.493 24">
  <path id="FontAwsome_sign-out-alt_" data-name="FontAwsome (sign-out-alt)" d="M31.057,77.04l-10.5,10.5A1.5,1.5,0,0,1,18,86.476v-6H9.5a1.5,1.5,0,0,1-1.5-1.5v-6a1.5,1.5,0,0,1,1.5-1.5H18v-6a1.5,1.5,0,0,1,2.562-1.062l10.5,10.5A1.513,1.513,0,0,1,31.057,77.04ZM12,87.226v-2.5a.752.752,0,0,0-.75-.75H6a2,2,0,0,1-2-2v-12a2,2,0,0,1,2-2h5.249a.752.752,0,0,0,.75-.75v-2.5a.752.752,0,0,0-.75-.75H6a6,6,0,0,0-6,6v12a6,6,0,0,0,6,6h5.249A.752.752,0,0,0,12,87.226Z" transform="translate(0 -63.979)" fill="#5f5f5f"/>
</svg>
